<svg xmlns="http://www.w3.org/2000/svg" width="1200" height="300" viewBox="0 0 1200 300">
  <defs>
    <linearGradient id="sun" x1="0" y1="0" x2="0" y2="1">
      <stop offset="0" stop-color="#ffd23f"/><stop offset="0.5" stop-color="#ff8a3d"/><stop offset="0.85" stop-color="#ff2d95"/>
    </linearGradient>
    <filter id="glow" x="-40%" y="-40%" width="180%" height="180%">
      <feGaussianBlur stdDeviation="4" result="b"/>
      <feMerge><feMergeNode in="b"/><feMergeNode in="SourceGraphic"/></feMerge>
    </filter>
    <radialGradient id="halo" cx="0.5" cy="0.3" r="0.8">
      <stop offset="0" stop-color="#3a1f4f"/><stop offset="1" stop-color="#0d0b12"/>
    </radialGradient>
  </defs>
  <rect width="1200" height="300" fill="url(#halo)"/>
  <circle cx="600" cy="222" r="110" fill="url(#sun)" opacity="0.95"/>
  <g opacity="0.8" fill="#0d0b12">
    <rect x="496" y="180" width="208" height="8"/>
    <rect x="508" y="203" width="184" height="8"/>
    <rect x="520" y="226" width="160" height="8"/>
    <rect x="532" y="249" width="136" height="8"/>
  </g>
  <g stroke="#29d9ff" stroke-width="1.6" opacity="0.45">
    <line x1="-80" y1="300" x2="180" y2="260"/><line x1="120" y1="300" x2="340" y2="246"/>
    <line x1="320" y1="300" x2="500" y2="232"/><line x1="520" y1="300" x2="660" y2="218"/>
    <line x1="720" y1="300" x2="860" y2="232"/><line x1="920" y1="300" x2="1060" y2="246"/>
    <line x1="1120" y1="300" x2="1280" y2="260"/>
  </g>
  <g transform="translate(105 268)">
    <path d="M0 32 Q6 15 2 0" stroke="#251543" stroke-width="9" stroke-linecap="round" fill="none"/>
    <path d="M2 3 Q-18 -13 -34 -9" stroke="#251543" stroke-width="5.5" stroke-linecap="round" fill="none"/>
    <path d="M2 3 Q-12 -24 2 -28" stroke="#251543" stroke-width="5.5" stroke-linecap="round" fill="none"/>
    <path d="M2 3 Q15 -24 32 -19" stroke="#251543" stroke-width="5.5" stroke-linecap="round" fill="none"/>
  </g>
  <g transform="translate(1095 268) scale(-1 1)">
    <path d="M0 32 Q6 15 2 0" stroke="#251543" stroke-width="9" stroke-linecap="round" fill="none"/>
    <path d="M2 3 Q-18 -13 -34 -9" stroke="#251543" stroke-width="5.5" stroke-linecap="round" fill="none"/>
    <path d="M2 3 Q-12 -24 2 -28" stroke="#251543" stroke-width="5.5" stroke-linecap="round" fill="none"/>
    <path d="M2 3 Q15 -24 32 -19" stroke="#251543" stroke-width="5.5" stroke-linecap="round" fill="none"/>
  </g>
  <g transform="translate(700 250) scale(1.25)">
    <rect x="4" y="0" width="2" height="6" fill="#fff"/>
    <rect x="10" y="0" width="2" height="6" fill="#fff"/>
    <rect x="3" y="5" width="10" height="6" fill="#f3d6e3"/>
    <rect x="4" y="11" width="8" height="5" fill="#f3d6e3"/>
    <rect x="5" y="16" width="2" height="4" fill="#f3d6e3"/><rect x="9" y="16" width="2" height="4" fill="#f3d6e3"/>
    <rect x="6" y="7" width="1.5" height="1.5" fill="#0d0b12"/>
  </g>
  <text transform="translate(600 122) skewX(-6)" font-family="Arial Black, Arial, sans-serif" font-weight="900" font-size="56" letter-spacing="2" fill="#ffffff" stroke="#ff2d95" stroke-width="1.4" text-anchor="middle" filter="url(#glow)">MOHAMMAD FIRAS SADA</text>
  <text x="600" y="170" font-family="Courier New, monospace" font-size="22" fill="#f2eff7" text-anchor="middle" letter-spacing="3" font-weight="bold" stroke="#0d0b12" stroke-width="0.8">research networking systems software engineer</text>
  <text x="600" y="197" font-family="Courier New, monospace" font-size="15" fill="#c9c0e0" text-anchor="middle" letter-spacing="2" stroke="#0d0b12" stroke-width="0.8">science data movement | programmable networks | hpc</text>
</svg>
